<svg viewBox="0 0 36 36" xmlns="http://www.w3.org/2000/svg" aria-hidden="true" role="img">
  <defs>
    <linearGradient id="gradient">
      <stop offset="20%" stop-color="#0079ad" />
      <stop offset="100%" stop-color="#42810e" />
    </linearGradient>
  </defs>
  <path stroke="url(#gradient)" fill="url(#gradient)" d="M 32 5 L 4 5 C 2.895 5 2 5.895 2 7 L 2 29 C 2 30.105 2.895 31 4 31 L 32 31 C 33.105 31 34 30.105 34 29 L 34 7 C 34 5.895 33.105 5 32 5 Z M 4 29 L 4 7 L 32 7 L 32 29 Z"></path>
  <polygon stroke="url(#gradient)" fill="url(#gradient)" points="15.62 15.222 9.602 23.968 5.55 20.384 6.61 19.186 9.308 21.572 15.634 12.38 22.384 22.395 29.138 13.47 30.414 14.436 22.308 25.145"></polygon>
</svg>